<svg width="30" height="30" viewBox="0 0 30 30" fill="none" xmlns="http://www.w3.org/2000/svg">
<path fill-rule="evenodd" clip-rule="evenodd" d="M11.9524 15.9934C11.5834 15.7135 11.0912 15.5742 10.4857 15.5742H7.42773V19.0922H10.4293C10.707 19.0922 10.9703 19.0676 11.2181 19.0122C11.4696 18.9572 11.6927 18.87 11.8809 18.7412C12.069 18.6173 12.2248 18.4474 12.338 18.2314C12.4517 18.0173 12.5062 17.7392 12.5062 17.4034C12.5062 16.7448 12.321 16.2775 11.9524 15.9934Z" fill="black"/>
<path fill-rule="evenodd" clip-rule="evenodd" d="M11.5119 13.296C11.8354 13.0598 11.9923 12.6695 11.9923 12.1342C11.9923 11.8369 11.9402 11.5912 11.8354 11.4006C11.727 11.2099 11.5834 11.0607 11.402 10.9563C11.222 10.8476 11.0187 10.7725 10.7828 10.732C10.5512 10.6867 10.3081 10.6689 10.0594 10.6689H7.42773V13.6542H10.274C10.7724 13.6542 11.1851 13.536 11.5119 13.296Z" fill="black"/>
<path fill-rule="evenodd" clip-rule="evenodd" d="M0 0V30H30V0H0ZM18.1738 9.34958H23.3523V10.6102H18.1738V9.34958ZM14.941 19.2334C14.6909 19.7084 14.3503 20.0933 13.9305 20.3903C13.5075 20.69 13.0214 20.9097 12.477 21.0528C11.9389 21.1959 11.3799 21.2679 10.8076 21.2679H4.61539V8.49257H10.6385C11.2497 8.49257 11.8011 8.54538 12.3051 8.65464C12.8064 8.76099 13.2342 8.93842 13.5956 9.18165C13.9514 9.42495 14.23 9.74848 14.4293 10.1562C14.624 10.5577 14.7217 11.0606 14.7217 11.6551C14.7217 12.2982 14.5758 12.8354 14.284 13.2648C13.9898 13.6935 13.5578 14.0453 12.9802 14.3184C13.7666 14.5444 14.3489 14.9424 14.7349 15.5082C15.123 16.078 15.3129 16.7596 15.3129 17.5588C15.3129 18.2066 15.1888 18.7645 14.941 19.2334ZM25.3685 17.2544H18.6935C18.6935 17.9856 18.9407 18.678 19.3226 19.0496C19.703 19.4213 20.253 19.6081 20.9655 19.6081C21.4781 19.6081 21.921 19.4786 22.2924 19.2204C22.6605 18.9624 22.8846 18.6867 22.9713 18.4004H25.2088C24.8492 19.5138 24.3035 20.3087 23.5592 20.7873C22.8235 21.2679 21.9262 21.5074 20.8807 21.5074C20.1521 21.5074 19.4964 21.3894 18.9076 21.1571C18.3192 20.9218 17.8275 20.5921 17.4139 20.1624C17.0107 19.7306 16.6976 19.2204 16.4745 18.6209C16.2537 18.0247 16.1424 17.3645 16.1424 16.6491C16.1424 15.9575 16.258 15.3113 16.4839 14.7141C16.7146 14.1148 17.0335 13.5978 17.4527 13.1641C17.8729 12.728 18.3713 12.3838 18.9516 12.1325C19.532 11.8821 20.1719 11.7561 20.8807 11.7561C21.6633 11.7561 22.3488 11.9067 22.9363 12.2135C23.5218 12.516 24.0017 12.926 24.3788 13.4393C24.7559 13.9517 25.024 14.5377 25.1918 15.195C25.358 15.8512 25.4163 16.5367 25.3685 17.2544Z" fill="black"/>
<path fill-rule="evenodd" clip-rule="evenodd" d="M20.8042 13.6738C20.3983 13.6738 20.0623 13.7421 19.7933 13.8813C19.5304 14.0187 19.3149 14.1897 19.15 14.3911C18.9861 14.5957 18.8743 14.8117 18.8094 15.0427C18.7441 15.2677 18.7052 15.4719 18.6934 15.6524H22.8272C22.7666 15.0046 22.5448 14.5256 22.2417 14.1888C21.9398 13.8546 21.4282 13.6738 20.8042 13.6738Z" fill="black"/>
</svg>
