<svg width="30" height="30" viewBox="0 0 30 30" fill="none" xmlns="http://www.w3.org/2000/svg">
<path d="M7.60722 29.8939C5.8231 29.8128 4.85392 29.5159 4.20929 29.2644C3.35513 28.9319 2.74616 28.536 2.10509 27.8958C1.46402 27.2556 1.06726 26.6467 0.73647 25.7925C0.485036 25.1479 0.18813 24.1787 0.106993 22.3946C0.0178322 20.466 0 19.8874 0 15.0013C0 10.1153 0.0196154 9.53755 0.106102 7.60722C0.187238 5.8231 0.485927 4.85571 0.735578 4.20929C1.06815 3.35513 1.46492 2.74616 2.1042 2.1042C2.74438 1.46402 3.35334 1.06637 4.2084 0.735578C4.85303 0.484144 5.82221 0.187238 7.60632 0.106102C9.53577 0.0178322 10.1153 0 14.9996 0C19.8856 0 20.4633 0.0196154 22.3937 0.106102C24.1778 0.187238 25.1452 0.485927 25.7916 0.735578C26.6458 1.06637 27.2547 1.46402 27.8958 2.1042C28.5369 2.74438 28.9319 3.35424 29.2644 4.2084C29.5159 4.85303 29.8128 5.82221 29.8939 7.60632C29.9822 9.53666 30 10.1144 30 15.0004C30 19.8847 29.9822 20.4642 29.8939 22.3946C29.8128 24.1787 29.5141 25.1479 29.2644 25.7925C28.9319 26.6467 28.536 27.2556 27.8958 27.8958C27.2556 28.536 26.6458 28.9319 25.7916 29.2644C25.147 29.5159 24.1778 29.8128 22.3937 29.8939C20.4651 29.9822 19.8856 30 14.9996 30C10.1153 30 9.53577 29.9831 7.60722 29.8939Z" fill="url(#paint0_radial_234_14)"/>
<path d="M7.60722 29.8939C5.8231 29.8128 4.85392 29.5159 4.20929 29.2644C3.35513 28.9319 2.74616 28.536 2.10509 27.8958C1.46402 27.2556 1.06726 26.6467 0.73647 25.7925C0.485036 25.1479 0.18813 24.1787 0.106993 22.3946C0.0178322 20.466 0 19.8874 0 15.0013C0 10.1153 0.0196154 9.53755 0.106102 7.60722C0.187238 5.8231 0.485927 4.85571 0.735578 4.20929C1.06815 3.35513 1.46492 2.74616 2.1042 2.1042C2.74438 1.46402 3.35334 1.06637 4.2084 0.735578C4.85303 0.484144 5.82221 0.187238 7.60632 0.106102C9.53577 0.0178322 10.1153 0 14.9996 0C19.8856 0 20.4633 0.0196154 22.3937 0.106102C24.1778 0.187238 25.1452 0.485927 25.7916 0.735578C26.6458 1.06637 27.2547 1.46402 27.8958 2.1042C28.5369 2.74438 28.9319 3.35424 29.2644 4.2084C29.5159 4.85303 29.8128 5.82221 29.8939 7.60632C29.9822 9.53666 30 10.1144 30 15.0004C30 19.8847 29.9822 20.4642 29.8939 22.3946C29.8128 24.1787 29.5141 25.1479 29.2644 25.7925C28.9319 26.6467 28.536 27.2556 27.8958 27.8958C27.2556 28.536 26.6458 28.9319 25.7916 29.2644C25.147 29.5159 24.1778 29.8128 22.3937 29.8939C20.4651 29.9822 19.8856 30 14.9996 30C10.1153 30 9.53577 29.9831 7.60722 29.8939Z" fill="black"/>
<path d="M11.3174 15.0631C11.3174 13.0114 12.9802 11.3478 15.0318 11.3478C17.0835 11.3478 18.7472 13.0114 18.7472 15.0631C18.7472 17.1148 17.0835 18.7784 15.0318 18.7784C12.9802 18.7784 11.3174 17.1148 11.3174 15.0631ZM9.30896 15.0631C9.30896 18.2239 11.8711 20.786 15.0318 20.786C18.1926 20.786 20.7547 18.2239 20.7547 15.0631C20.7547 11.9023 18.1926 9.34021 15.0318 9.34021C11.8711 9.34021 9.30904 11.9022 9.30904 15.0631H9.30896ZM19.644 9.11329C19.6439 9.37781 19.7222 9.63641 19.8691 9.85641C20.0159 10.0764 20.2247 10.2479 20.4691 10.3492C20.7134 10.4506 20.9823 10.4771 21.2418 10.4256C21.5012 10.3741 21.7396 10.2469 21.9267 10.0599C22.1138 9.87293 22.2413 9.63468 22.293 9.37527C22.3447 9.11585 22.3183 8.84693 22.2172 8.60251C22.1161 8.35809 21.9447 8.14915 21.7249 8.0021C21.505 7.85506 21.2464 7.77652 20.9819 7.77641H20.9814C20.6268 7.77658 20.2868 7.91746 20.0361 8.16812C19.7853 8.41879 19.6443 8.75873 19.644 9.11329ZM10.5292 24.135C9.44261 24.0856 8.85201 23.9046 8.45952 23.7517C7.93918 23.5491 7.56791 23.3078 7.17756 22.918C6.78721 22.5282 6.54559 22.1573 6.34391 21.6369C6.19091 21.2446 6.00991 20.6538 5.96051 19.5672C5.90648 18.3925 5.89569 18.0396 5.89569 15.0633C5.89569 12.087 5.90737 11.7351 5.96051 10.5593C6.01 9.4727 6.19233 8.88308 6.34391 8.48961C6.54648 7.96927 6.78775 7.598 7.17756 7.20765C7.56737 6.81731 7.93828 6.57568 8.45952 6.374C8.85183 6.221 9.44261 6.04 10.5292 5.99061C11.704 5.93657 12.0569 5.92579 15.0318 5.92579C18.0068 5.92579 18.36 5.93729 19.5358 5.99078C20.6224 6.04027 21.212 6.2226 21.6055 6.37418C22.1258 6.57586 22.4971 6.81802 22.8875 7.20783C23.2778 7.59764 23.5185 7.96944 23.7211 8.48979C23.8741 8.8821 24.0551 9.47288 24.1045 10.5595C24.1585 11.7352 24.1693 12.0872 24.1693 15.0634C24.1693 18.0397 24.1585 18.3917 24.1045 19.5674C24.055 20.654 23.8731 21.2446 23.7211 21.6371C23.5185 22.1575 23.2773 22.5287 22.8875 22.9182C22.4976 23.3076 22.1258 23.5493 21.6055 23.7518C21.2132 23.9048 20.6224 24.0858 19.5358 24.1352C18.361 24.1893 18.0081 24.2 15.0318 24.2C12.0556 24.2 11.7036 24.1893 10.5292 24.1352V24.135ZM10.4369 3.98546C9.25047 4.0395 8.43973 4.22762 7.7317 4.50313C6.99888 4.78765 6.3777 5.16934 5.75741 5.78866C5.13711 6.40797 4.7564 7.02924 4.47188 7.76295C4.19637 8.47142 4.00825 9.28172 3.95421 10.4682C3.89929 11.6565 3.88672 12.0364 3.88672 15.0631C3.88672 18.0898 3.89929 18.4697 3.95421 19.658C4.00825 20.8446 4.19637 21.6548 4.47188 22.3632C4.7564 23.0961 5.1372 23.7185 5.75741 24.3375C6.37761 24.9566 6.99799 25.3377 7.7317 25.6231C8.44106 25.8986 9.25047 26.0867 10.4369 26.1407C11.6259 26.1948 12.0052 26.2082 15.0318 26.2082C18.0585 26.2082 18.4384 26.1956 19.6268 26.1407C20.8133 26.0867 21.6235 25.8986 22.332 25.6231C23.0648 25.3377 23.686 24.9568 24.3063 24.3375C24.9266 23.7182 25.3065 23.0961 25.5918 22.3632C25.8673 21.6548 26.0563 20.8445 26.1095 19.658C26.1635 18.4688 26.1761 18.0898 26.1761 15.0631C26.1761 12.0364 26.1635 11.6565 26.1095 10.4682C26.0554 9.28163 25.8673 8.47098 25.5918 7.76295C25.3065 7.03013 24.9256 6.40895 24.3063 5.78866C23.687 5.16836 23.0648 4.78765 22.3329 4.50313C21.6235 4.22762 20.8132 4.0386 19.6276 3.98546C18.4391 3.93116 18.0594 3.91797 15.0332 3.91797C12.007 3.91797 11.6263 3.93054 10.4374 3.98546" fill="white"/>
<defs>
<radialGradient id="paint0_radial_234_14" cx="0" cy="0" r="1" gradientUnits="userSpaceOnUse" gradientTransform="translate(1.94157 29.3428) scale(38.0889)">
<stop offset="0.09" stop-color="#FA8F21"/>
<stop offset="0.78" stop-color="#D82D7E"/>
</radialGradient>
</defs>
</svg>
