<svg width="30" height="30" viewBox="0 0 30 30" fill="none" xmlns="http://www.w3.org/2000/svg">
<path d="M27.7848 0H2.2164C0.9924 0 0 0.9624 0 2.1492V27.8496C0 29.0376 0.9924 30 2.2164 30H27.7848C29.0088 30 30 29.0364 30 27.8496V2.1492C30 0.9624 29.0088 0 27.7848 0Z" fill="black"/>
<path d="M22.0158 17.4437C20.835 17.4437 19.7298 16.9433 18.7242 16.1285L18.969 14.9789L18.9798 14.9369C19.1982 13.7129 19.8894 11.6573 22.0158 11.6573C23.6106 11.6573 24.9078 12.9569 24.9078 14.5529C24.903 16.1441 23.6058 17.4437 22.0158 17.4437V17.4437ZM22.0158 8.72327C19.299 8.72327 17.193 10.4909 16.3374 13.3973C15.0294 11.4329 14.0406 9.07487 13.461 7.08887H10.5378V14.7065C10.5378 16.2077 9.31498 17.4317 7.81498 17.4317C6.31498 17.4317 5.09338 16.2077 5.09338 14.7065V7.08887H2.16898V14.7065C2.15818 17.8265 4.69498 20.3873 7.81018 20.3873C10.9254 20.3873 13.4622 17.8265 13.4622 14.7065V13.4285C14.031 14.6153 14.727 15.8129 15.573 16.8785L13.7814 25.3109H16.7754L18.0726 19.1945C19.2102 19.9241 20.5182 20.3813 22.0182 20.3813C25.2246 20.3813 27.8346 17.7509 27.8346 14.5409C27.8322 11.3369 25.2222 8.72327 22.0158 8.72327V8.72327Z" fill="white"/>
</svg>
